<?xml version="1.0" encoding="utf-8" standalone="no"?><!DOCTYPE svg PUBLIC "-//W3C//DTD SVG 20010904//EN" "http://www.w3.org/TR/2001/REC-SVG-20010904/DTD/svg10.dtd"><svg xmlns="http://www.w3.org/2000/svg" width="1169" height="398" xmlns:xlink="http://www.w3.org/1999/xlink"><source><![CDATA[Production Application--> Kafka: Sends log [messages]
Kafka--> Samza : Process log messages
Samza --> Druid : Store timeseries data
Druid --> Superset : Connect to visualize
Superset -->> Druid : Provide data to visualize
Alert Engine -->> Druid : Trigger alerts]]></source><desc></desc><defs><marker viewBox="0 0 5 5" markerWidth="5" markerHeight="5" orient="auto" refX="5" refY="2.5" id="markerArrowBlock"><path d="M 0 0 L 5 2.5 L 0 5 z"></path></marker><marker viewBox="0 0 9.6 16" markerWidth="4" markerHeight="16" orient="auto" refX="9.6" refY="8" id="markerArrowOpen"><path d="M 9.6,8 1.92,16 0,13.7 5.76,8 0,2.286 1.92,0 9.6,8 z"></path></marker></defs><g class="title"></g><g class="actor"><path d="M10,20C44.0,28.5 188.4,11.5 222.3,20.0C224.0,35.5 220.6,30.2 222.3,62.3C167.1,70.8 54.2,53.8 10.0,62.3C8.3,46.3 11.7,26.8 10.0,20.0" stroke="#000000" fill="#ffffff" style="stroke-width: 2px;"></path><text x="20" y="43.765625" style="font-size: 16px; font-family: danielbd;"><tspan x="20">Production Application</tspan></text></g><g class="actor"><path d="M10,336.296875C183.1,327.8 171.4,344.8 222.3,336.3C220.6,345.2 224.0,360.8 222.3,378.6C100.7,387.1 162.2,370.1 10.0,378.6C11.7,371.9 8.3,368.5 10.0,336.3" stroke="#000000" fill="#ffffff" style="stroke-width: 2px;"></path><text x="20" y="360.0625" style="font-size: 16px; font-family: danielbd;"><tspan x="20">Production Application</tspan></text></g><path d="M116.2,62.3C105.2,270.5 127.1,229.9 116.2,336.3" stroke="#000000" fill="none" style="stroke-width: 2px;"></path><g class="actor"><path d="M276.0546875,20C335.2,17.2 289.8,22.8 346.5,20.0C348.2,26.8 344.8,30.2 346.5,62.3C312.1,59.5 322.6,65.1 276.1,62.3C274.4,50.9 277.7,50.8 276.1,20.0" stroke="#000000" fill="#ffffff" style="stroke-width: 2px;"></path><text x="286.0546875" y="43.765625" style="font-size: 16px; font-family: danielbd;"><tspan x="286.0546875">Kafka</tspan></text></g><g class="actor"><path d="M276.0546875,336.296875C295.1,339.1 324.4,333.5 346.5,336.3C344.8,371.9 348.2,343.1 346.5,378.6C314.1,375.8 301.4,381.4 276.1,378.6C277.7,368.5 274.4,346.5 276.1,336.3" stroke="#000000" fill="#ffffff" style="stroke-width: 2px;"></path><text x="286.0546875" y="360.0625" style="font-size: 16px; font-family: danielbd;"><tspan x="286.0546875">Kafka</tspan></text></g><path d="M311.3,62.3C300.3,134.8 322.2,161.0 311.3,336.3" stroke="#000000" fill="none" style="stroke-width: 2px;"></path><g class="actor"><path d="M471.6796875,20C489.7,17.0 483.7,23.0 546.8,20.0C548.5,36.1 545.1,52.3 546.8,62.3C495.7,59.3 534.8,65.3 471.7,62.3C473.4,55.6 470.0,26.8 471.7,20.0" stroke="#000000" fill="#ffffff" style="stroke-width: 2px;"></path><text x="481.6796875" y="43.765625" style="font-size: 16px; font-family: danielbd;"><tspan x="481.6796875">Samza</tspan></text></g><g class="actor"><path d="M471.6796875,336.296875C512.0,333.3 521.6,339.3 546.8,336.3C548.5,371.9 545.1,363.1 546.8,378.6C503.9,381.6 534.8,375.6 471.7,378.6C473.4,368.5 470.0,371.9 471.7,336.3" stroke="#000000" fill="#ffffff" style="stroke-width: 2px;"></path><text x="481.6796875" y="360.0625" style="font-size: 16px; font-family: danielbd;"><tspan x="481.6796875">Samza</tspan></text></g><path d="M509.2,62.3C520.2,292.5 498.3,106.2 509.2,336.3" stroke="#000000" fill="none" style="stroke-width: 2px;"></path><g class="actor"><path d="M677.03125,20C696.5,17.1 689.6,22.9 750.4,20.0C748.7,36.9 752.1,33.3 750.4,62.3C713.5,59.4 699.6,65.3 677.0,62.3C675.3,51.4 678.7,35.0 677.0,20.0" stroke="#000000" fill="#ffffff" style="stroke-width: 2px;"></path><text x="687.03125" y="43.765625" style="font-size: 16px; font-family: danielbd;"><tspan x="687.03125">Druid</tspan></text></g><g class="actor"><path d="M677.03125,336.296875C694.6,333.4 718.3,339.2 750.4,336.3C752.1,353.9 748.7,355.6 750.4,378.6C694.6,381.6 720.9,375.7 677.0,378.6C678.7,366.3 675.3,351.9 677.0,336.3" stroke="#000000" fill="#ffffff" style="stroke-width: 2px;"></path><text x="687.03125" y="360.0625" style="font-size: 16px; font-family: danielbd;"><tspan x="687.03125">Druid</tspan></text></g><path d="M713.7,62.3C702.7,128.1 724.7,170.0 713.7,336.3" stroke="#000000" fill="none" style="stroke-width: 2px;"></path><g class="actor"><path d="M898.21875,20C934.9,16.2 921.2,23.8 994.0,20.0C992.4,52.2 995.7,52.9 994.0,62.3C921.2,58.5 923.3,66.2 898.2,62.3C896.5,47.5 899.9,46.0 898.2,20.0" stroke="#000000" fill="#ffffff" style="stroke-width: 2px;"></path><text x="908.21875" y="43.765625" style="font-size: 16px; font-family: danielbd;"><tspan x="908.21875">Superset</tspan></text></g><g class="actor"><path d="M898.21875,336.296875C915.8,332.5 969.4,340.1 994.0,336.3C995.7,346.5 992.4,360.3 994.0,378.6C929.3,382.5 978.7,374.8 898.2,378.6C899.9,371.9 896.5,343.1 898.2,336.3" stroke="#000000" fill="#ffffff" style="stroke-width: 2px;"></path><text x="908.21875" y="360.0625" style="font-size: 16px; font-family: danielbd;"><tspan x="908.21875">Superset</tspan></text></g><path d="M946.1,62.3C935.2,227.0 957.1,178.4 946.1,336.3" stroke="#000000" fill="none" style="stroke-width: 2px;"></path><g class="actor"><path d="M1014.046875,20C1034.2,15.0 1063.5,25.0 1139.8,20.0C1138.1,28.4 1141.5,55.6 1139.8,62.3C1044.2,67.4 1084.2,57.3 1014.0,62.3C1012.4,36.9 1015.7,31.9 1014.0,20.0" stroke="#000000" fill="#ffffff" style="stroke-width: 2px;"></path><text x="1024.046875" y="43.765625" style="font-size: 16px; font-family: danielbd;"><tspan x="1024.046875">Alert Engine</tspan></text></g><g class="actor"><path d="M1014.046875,336.296875C1098.2,331.3 1034.2,341.3 1139.8,336.3C1141.5,353.6 1138.1,366.7 1139.8,378.6C1119.7,373.6 1060.8,383.7 1014.0,378.6C1012.4,366.1 1015.7,368.5 1014.0,336.3" stroke="#000000" fill="#ffffff" style="stroke-width: 2px;"></path><text x="1024.046875" y="360.0625" style="font-size: 16px; font-family: danielbd;"><tspan x="1024.046875">Alert Engine</tspan></text></g><path d="M1076.9,62.3C1066.0,172.7 1087.9,292.5 1076.9,336.3" stroke="#000000" fill="none" style="stroke-width: 2px;"></path><g class="signal"><text x="126.1640625" y="89.9296875" style="font-size: 16px; font-family: danielbd;"><tspan x="126.1640625">Sends log [messages]</tspan></text><path d="M116.2,104.7C191.3,112.5 163.0,96.9 311.3,104.7" stroke="#000000" fill="none" style="stroke-width: 2px; stroke-dasharray: 6px, 2px; marker-end: url(#markerArrowBlock);"></path></g><g class="signal"><text x="321.2890625" y="132.2578125" style="font-size: 16px; font-family: danielbd;"><tspan x="321.2890625">Process log messages</tspan></text><path d="M311.3,147.0C343.0,139.1 470.5,154.9 509.2,147.0" stroke="#000000" fill="none" style="stroke-width: 2px; stroke-dasharray: 6px, 2px; marker-end: url(#markerArrowBlock);"></path></g><g class="signal"><text x="519.2421875" y="174.5859375" style="font-size: 16px; font-family: danielbd;"><tspan x="519.2421875">Store timeseries data</tspan></text><path d="M509.2,189.3C542.4,197.5 681.0,181.1 713.7,189.3" stroke="#000000" fill="none" style="stroke-width: 2px; stroke-dasharray: 6px, 2px; marker-end: url(#markerArrowBlock);"></path></g><g class="signal"><text x="744.1328125" y="216.9140625" style="font-size: 16px; font-family: danielbd;"><tspan x="744.1328125">Connect to visualize</tspan></text><path d="M713.7,231.6C842.8,240.9 841.4,222.3 946.1,231.6" stroke="#000000" fill="none" style="stroke-width: 2px; stroke-dasharray: 6px, 2px; marker-end: url(#markerArrowBlock);"></path></g><g class="signal"><text x="723.6953125" y="259.2421875" style="font-size: 16px; font-family: danielbd;"><tspan x="723.6953125">Provide data to visualize</tspan></text><path d="M946.1,274.0C769.5,283.3 750.9,264.7 713.7,274.0" stroke="#000000" fill="none" style="stroke-width: 2px; stroke-dasharray: 6px, 2px; marker-end: url(#markerArrowOpen);"></path></g><g class="signal"><text x="836.390625" y="301.5703125" style="font-size: 16px; font-family: danielbd;"><tspan x="836.390625">Trigger alerts</tspan></text><path d="M1076.9,316.3C938.7,301.8 771.8,330.8 713.7,316.3" stroke="#000000" fill="none" style="stroke-width: 2px; stroke-dasharray: 6px, 2px; marker-end: url(#markerArrowOpen);"></path></g></svg>